<?xml version="1.0" encoding="UTF-8"?>
<svg version="1.1" xmlns="http://www.w3.org/2000/svg" width="400" height="400">
<path d="M0 0 C1.23391228 -0.01058945 1.23391228 -0.01058945 2.49275208 -0.02139282 C36.44592663 -0.24667095 36.44592663 -0.24667095 51.171875 3.203125 C52.06503418 3.40180176 52.95819336 3.60047852 53.87841797 3.80517578 C80.05158526 9.7223948 105.43787555 20.28134731 127.171875 36.203125 C128.73228516 37.33814453 128.73228516 37.33814453 130.32421875 38.49609375 C137.93010108 44.13609215 144.93699192 50.32606186 151.77490234 56.86914062 C152.96618746 58.00671173 154.17117264 59.12990724 155.37890625 60.25 C187.35060068 90.72403868 210.20998236 140.36129218 211.33300781 184.46582031 C211.35254956 185.98756911 211.36630412 187.50940058 211.375 189.03125 C211.38205963 189.85385818 211.38911926 190.67646637 211.39639282 191.52400208 C211.62167095 225.47717663 211.62167095 225.47717663 208.171875 240.203125 C207.87385986 241.54286377 207.87385986 241.54286377 207.56982422 242.90966797 C201.6526052 269.08283526 191.09365269 294.46912555 175.171875 316.203125 C174.41519531 317.24339844 173.65851563 318.28367187 172.87890625 319.35546875 C167.23890785 326.96135108 161.04893814 333.96824192 154.50585938 340.80615234 C153.36828827 341.99743746 152.24509276 343.20242264 151.125 344.41015625 C120.65096132 376.38185068 71.01370782 399.24123236 26.90917969 400.36425781 C25.38743089 400.38379956 23.86559942 400.39755412 22.34375 400.40625 C21.10983772 400.41683945 21.10983772 400.41683945 19.85099792 400.42764282 C-14.10217663 400.65292095 -14.10217663 400.65292095 -28.828125 397.203125 C-30.16786377 396.90510986 -30.16786377 396.90510986 -31.53466797 396.60107422 C-57.70783526 390.6838552 -83.09412555 380.12490269 -104.828125 364.203125 C-105.86839844 363.44644531 -106.90867187 362.68976563 -107.98046875 361.91015625 C-115.58635108 356.27015785 -122.59324192 350.08018814 -129.43115234 343.53710938 C-130.62243746 342.39953827 -131.82742264 341.27634276 -133.03515625 340.15625 C-165.00685068 309.68221132 -187.86623236 260.04495782 -188.98925781 215.94042969 C-189.00879956 214.41868089 -189.02255412 212.89684942 -189.03125 211.375 C-189.03830963 210.55239182 -189.04536926 209.72978363 -189.05264282 208.88224792 C-189.27792095 174.92907337 -189.27792095 174.92907337 -185.828125 160.203125 C-185.62944824 159.30996582 -185.43077148 158.41680664 -185.22607422 157.49658203 C-179.3088552 131.32341474 -168.74990269 105.93712445 -152.828125 84.203125 C-152.07144531 83.16285156 -151.31476563 82.12257813 -150.53515625 81.05078125 C-144.89515785 73.44489892 -138.70518814 66.43800808 -132.16210938 59.60009766 C-131.02453827 58.40881254 -129.90134276 57.20382736 -128.78125 55.99609375 C-97.01652998 22.67028706 -45.85508406 0.26201706 0 0 Z " fill="#FEFEFE" transform="translate(188.828125,-0.203125)"/>
<path d="M0 0 C9.99769671 9.44904263 16.86548184 21.65593681 17.3984375 35.546875 C17.40629006 37.58854151 17.39831718 39.63032654 17.375 41.671875 C17.38660156 42.68765625 17.39820313 43.7034375 17.41015625 44.75 C17.3599134 57.81314009 12.76617302 70.28617591 3.80859375 79.98828125 C-10.0848372 92.92147507 -24.41149848 96.21419246 -42.78125 95.9453125 C-55.67728854 95.48013397 -67.60216861 89.085175 -76.375 79.6796875 C-81.80236404 72.97376174 -85.85245751 66.03519188 -88 57.671875 C-88.20367187 56.98996094 -88.40734375 56.30804688 -88.6171875 55.60546875 C-92.32761482 41.8057288 -90.23864969 26.50073469 -83.4375 14.01171875 C-75.88077014 1.71149813 -65.31317432 -6.62788489 -51.50390625 -11.14453125 C-33.30731468 -15.41729413 -14.67892471 -11.3914572 0 0 Z " fill="#FDFDFD" transform="translate(278,165.328125)"/>
<path d="M0 0 C47.78836634 0 47.78836634 0 58.734375 10.4296875 C68.49505641 21.50301228 69.82461664 33.44369938 69.1953125 47.55322266 C68.47042667 56.63422991 65.24013202 64.4100848 59 71 C58.36320312 71.69996094 57.72640625 72.39992188 57.0703125 73.12109375 C41.98309636 88.18067762 19.28196108 83 0 83 C0 55.61 0 28.22 0 0 Z " fill="#FCFCFC" transform="translate(311,166)"/>
<path d="M0 0 C63.99285714 0 63.99285714 0 78.3828125 13.25390625 C89.15625627 24.88610279 93.17448997 37.19850608 93.25 52.6875 C93.270625 53.72583984 93.29125 54.76417969 93.3125 55.83398438 C93.34714846 62.74202082 92.41568975 68.52934878 90 75 C89.48759766 76.37478516 89.48759766 76.37478516 88.96484375 77.77734375 C83.44324569 89.38739595 74.47278279 98.12824872 62.58203125 102.98828125 C42.73450225 110.00306956 20.13888417 106 0 106 C0 71.02 0 36.04 0 0 Z M12 12 C12 39.39 12 66.78 12 95 C43.58047805 97.47357413 43.58047805 97.47357413 69.84375 84.41796875 C80.54841025 72.41401097 82.0715543 59.85001906 81.21142578 44.21972656 C80.77173795 39.60351208 79.3682169 35.94212502 77 32 C76.56429687 31.2265625 76.12859375 30.453125 75.6796875 29.65625 C69.87050272 20.13299626 63.58929608 16.23571843 53 12 C39.47 12 25.94 12 12 12 Z " fill="#4C4C4C" transform="translate(299,154)"/>
<path d="M0 0 C9.99769671 9.44904263 16.86548184 21.65593681 17.3984375 35.546875 C17.40629006 37.58854151 17.39831718 39.63032654 17.375 41.671875 C17.38660156 42.68765625 17.39820313 43.7034375 17.41015625 44.75 C17.3599134 57.81314009 12.76617302 70.28617591 3.80859375 79.98828125 C-10.0848372 92.92147507 -24.41149848 96.21419246 -42.78125 95.9453125 C-55.67728854 95.48013397 -67.60216861 89.085175 -76.375 79.6796875 C-81.80236404 72.97376174 -85.85245751 66.03519188 -88 57.671875 C-88.20367187 56.98996094 -88.40734375 56.30804688 -88.6171875 55.60546875 C-92.32761482 41.8057288 -90.23864969 26.50073469 -83.4375 14.01171875 C-75.88077014 1.71149813 -65.31317432 -6.62788489 -51.50390625 -11.14453125 C-33.30731468 -15.41729413 -14.67892471 -11.3914572 0 0 Z M-69.3125 13.984375 C-72.63568537 18.07161684 -74.31957883 22.7299091 -76 27.671875 C-76.35835937 28.61804688 -76.71671875 29.56421875 -77.0859375 30.5390625 C-80.34569092 41.71137978 -78.00169195 54.10671672 -72.64453125 64.234375 C-66.84705962 73.43572408 -59.49311519 80.29319283 -48.82421875 83.28125 C-35.14302512 85.17353128 -21.64123473 85.09177538 -10.234375 76.6171875 C-1.10076215 68.89901758 4.12845471 60.46668687 5.20068359 48.41650391 C6.09083605 34.18248878 4.38423307 22.89543295 -5.0625 11.63671875 C-8.36212168 8.29052983 -11.8604847 5.87559754 -16 3.671875 C-17.16402344 3.05119141 -17.16402344 3.05119141 -18.3515625 2.41796875 C-36.47464627 -5.633618 -56.17358486 0.05712495 -69.3125 13.984375 Z " fill="#4B4B4B" transform="translate(278,165.328125)"/>
<path d="M0 0 C25.41 0 50.82 0 77 0 C77 3.96 77 7.92 77 12 C55.55 12 34.1 12 12 12 C12 24.21 12 36.42 12 49 C30.81 49 49.62 49 69 49 C69 52.63 69 56.26 69 60 C50.19 60 31.38 60 12 60 C12 75.18 12 90.36 12 106 C8.04 106 4.08 106 0 106 C0 71.02 0 36.04 0 0 Z " fill="#4B4B4B" transform="translate(36,154)"/>
<path d="M0 0 C0.61875 0.5775 1.2375 1.155 1.875 1.75 C0.34791037 5.18595166 -1.72427045 7.86912454 -4.125 10.75 C-6.97505166 9.62725238 -9.77253265 8.45566698 -12.5625 7.1875 C-22.56951271 3.14958259 -36.62681293 2.86332425 -46.6875 6.8125 C-56.17330541 11.49636242 -64.12230132 17.76358032 -67.93652344 27.90844727 C-71.97264143 40.14517954 -72.2563663 55.13871909 -66.79296875 66.953125 C-61.24892077 76.24946775 -53.5070266 83.35300838 -42.92578125 86.37890625 C-31.51427902 87.89089051 -19.75488505 88.31645906 -9.40234375 82.84375 C-7.125 81.75 -7.125 81.75 -3.125 81.75 C-1.421875 83.5 -1.421875 83.5 0.125 85.75 C0.64578125 86.4925 1.1665625 87.235 1.703125 88 C2.28320312 88.86625 2.28320312 88.86625 2.875 89.75 C-10.69239266 99.23551235 -25.58118552 101.34845584 -41.7421875 99.2890625 C-56.17241708 96.3476488 -67.38947257 88.62719214 -75.51953125 76.44140625 C-83.75015597 62.64359497 -85.6828215 46.50163423 -82.44140625 30.69921875 C-78.22604007 16.09411185 -68.89312289 4.33140189 -55.57421875 -3.0703125 C-38.75325497 -11.17227592 -15.52043996 -11.17471677 0 0 Z " fill="#FC751C" transform="translate(198.125,161.25)"/>
<path d="M0 0 C4.6975572 7.0463358 4.06787653 19.36197391 2.5390625 27.43359375 C0.53141017 33.49197989 -3.47778621 38.19841872 -8.625 41.875 C-12.36904568 43.64849532 -15.72242614 44.13144163 -19.84375 44.28125 C-20.76027344 44.31863281 -21.67679688 44.35601562 -22.62109375 44.39453125 C-24.54036458 44.46484375 -26.45963542 44.53515625 -28.37890625 44.60546875 C-29.29542969 44.64285156 -30.21195313 44.68023437 -31.15625 44.71875 C-31.98962891 44.74904297 -32.82300781 44.77933594 -33.68164062 44.81054688 C-35.89282892 44.99124213 -37.8699465 45.39456477 -40 46 C-34.29675168 34.33426479 -25.41006759 26.74424365 -14 21 C-16.54696913 22.2190363 -19.0871675 23.44969553 -21.625 24.6875 C-22.33785156 25.02716797 -23.05070312 25.36683594 -23.78515625 25.71679688 C-28.4352721 27.99919319 -32.14864776 30.53135311 -36 34 C-37.9067926 30.18641479 -37.03135259 26.01407114 -36 22 C-33.33393768 17.26297856 -29.96335217 14.00765541 -24.8125 12.1875 C-23.21705721 11.75785246 -21.61146201 11.36499987 -20 11 C-17.91582614 10.50351527 -15.83251879 10.00338184 -13.75 9.5 C-12.77546875 9.2834375 -11.8009375 9.066875 -10.796875 8.84375 C-6.49383104 7.54562501 -3.71550195 6.06091668 -1.1875 2.3125 C-0.795625 1.549375 -0.40375 0.78625 0 0 Z " fill="#7FB244" transform="translate(242,108)"/>
<path d="M0 0 C5.95479063 12.39968747 3.29426314 27.27394777 0 40 C-4.03791199 38.71368455 -7.43360176 37.30766945 -11 35 C-10.835 33.783125 -10.67 32.56625 -10.5 31.3125 C-9.4595689 21.8594403 -9.80923297 12.41981776 -11 3 C-9.73581754 2.30034557 -8.46334598 1.61565237 -7.1875 0.9375 C-6.47980469 0.55464844 -5.77210938 0.17179688 -5.04296875 -0.22265625 C-3 -1 -3 -1 0 0 Z " fill="#FC771F" transform="translate(219,188)"/>
<path d="M0 0 C2.5 2.1875 2.5 2.1875 4 5 C4 6.65 4 8.3 4 10 C-0.62 10 -5.24 10 -10 10 C-9.01 11.32 -8.02 12.64 -7 14 C-3.37436186 14.33380814 -3.37436186 14.33380814 0 14 C0 13.34 0 12.68 0 12 C0.99 12 1.98 12 3 12 C1.125 15.875 1.125 15.875 0 17 C-7.22962963 17.59259259 -7.22962963 17.59259259 -10.4375 15.125 C-13.03473593 11.59275913 -13.5180745 9.40363323 -13 5 C-9.2368919 -0.40946789 -6.18515103 -0.98177001 0 0 Z " fill="#93C74E" transform="translate(119,127)"/>
<path d="M0 0 C2.5 1.625 2.5 1.625 4 4 C4 5.98 4 7.96 4 10 C-0.29 10 -4.58 10 -9 10 C-8.34 11.32 -7.68 12.64 -7 14 C-1.44946714 13.25640327 -1.44946714 13.25640327 4 12 C2.5 14.5 2.5 14.5 0 17 C-4.90476852 17.85638816 -4.90476852 17.85638816 -8 17 C-11.0625 14.4375 -11.0625 14.4375 -13 11 C-13.06817573 7.04580795 -12.5665223 4.88377478 -10.4375 1.5625 C-6.96527096 -0.66328784 -4.01382942 -0.80605591 0 0 Z " fill="#9ACA5A" transform="translate(88,127)"/>
<path d="M0 0 C3 1.8125 3 1.8125 5 4 C5 4.99 5 5.98 5 7 C4.01 7 3.02 7 2 7 C1.34 6.01 0.68 5.02 0 4 C-1.97747122 3.63702064 -1.97747122 3.63702064 -4.125 3.8125 C-5.40375 3.874375 -6.6825 3.93625 -8 4 C-8.33 5.32 -8.66 6.64 -9 8 C-8.15695313 8.26554688 -7.31390625 8.53109375 -6.4453125 8.8046875 C-4.80175781 9.33449219 -4.80175781 9.33449219 -3.125 9.875 C-1.48917969 10.39707031 -1.48917969 10.39707031 0.1796875 10.9296875 C3 12 3 12 5 14 C5.55501103 19.21710365 5.55501103 19.21710365 3.8203125 21.6640625 C0.15926432 24.35092618 -4.68397057 23.59442322 -9 23 C-11.6875 21.1875 -11.6875 21.1875 -13 19 C-13 18.01 -13 17.02 -13 16 C-12.01 16 -11.02 16 -10 16 C-9.67 16.99 -9.34 17.98 -9 19 C-6.01405576 20.49297212 -3.29146376 20.11755228 0 20 C0.66 19.67 1.32 19.34 2 19 C2.65213292 16.97536745 2.65213292 16.97536745 3 15 C2.25234375 14.81824219 1.5046875 14.63648438 0.734375 14.44921875 C-0.25046875 14.19785156 -1.2353125 13.94648438 -2.25 13.6875 C-3.22453125 13.44386719 -4.1990625 13.20023438 -5.203125 12.94921875 C-8.03628385 11.98768579 -9.83286163 11.05068 -12 9 C-12.5 6 -12.5 6 -12 3 C-8.95698724 -0.80376595 -4.53136961 -0.82551684 0 0 Z " fill="#92C64C" transform="translate(48,121)"/>
<path d="M0 0 C0.99 0 1.98 0 3 0 C3 2.64 3 5.28 3 8 C3.66 7.67 4.32 7.34 5 7 C8.4375 6.6875 8.4375 6.6875 12 7 C14.54173027 9.37344219 14.97703845 10.74650446 15.29296875 14.234375 C15.25816406 15.39453125 15.22335938 16.5546875 15.1875 17.75 C15.16042969 18.92046875 15.13335937 20.0909375 15.10546875 21.296875 C15.07066406 22.18890625 15.03585938 23.0809375 15 24 C14.01 24 13.02 24 12 24 C11.93941406 23.07316406 11.87882812 22.14632812 11.81640625 21.19140625 C11.73261719 19.99386719 11.64882812 18.79632813 11.5625 17.5625 C11.48128906 16.36753906 11.40007812 15.17257813 11.31640625 13.94140625 C11.32343886 11.11429756 11.32343886 11.11429756 10 10 C7.5 9.83333333 7.5 9.83333333 5 10 C3.12175109 11.87824891 3.60897603 15.03935276 3.4375 17.5625 C3.35371094 18.76003906 3.26992188 19.95757812 3.18359375 21.19140625 C3.12300781 22.11824219 3.06242187 23.04507813 3 24 C2.01 24 1.02 24 0 24 C0 16.08 0 8.16 0 0 Z " fill="#9DCC5F" transform="translate(57,120)"/>
<path d="M0 0 C5.45454545 0.45454545 5.45454545 0.45454545 8 3 C8.55501103 8.21710365 8.55501103 8.21710365 6.8203125 10.6640625 C3.15926432 13.35092618 -1.68397057 12.59442322 -6 12 C-8.6875 10.1875 -8.6875 10.1875 -10 8 C-10 7.01 -10 6.02 -10 5 C-9.01 5 -8.02 5 -7 5 C-6.67 5.99 -6.34 6.98 -6 8 C-3.01405576 9.49297212 -0.29146376 9.11755228 3 9 C3.66 8.67 4.32 8.34 5 8 C5.33 6.68 5.66 5.36 6 4 C3.36 3.34 0.72 2.68 -2 2 C-1.34 1.34 -0.68 0.68 0 0 Z " fill="#93C64D" transform="translate(45,132)"/>
<path d="M0 0 C0.99 0 1.98 0 3 0 C3.33 0.66 3.66 1.32 4 2 C4.66 1.34 5.32 0.68 6 0 C7.32 0 8.64 0 10 0 C9.67 0.99 9.34 1.98 9 3 C8.175 3.33 7.35 3.66 6.5 4 C3.75854478 5.75812986 3.75854478 5.75812986 3.44921875 8.63671875 C3.20964541 11.42935727 3.05233087 14.19791981 3 17 C2.01 17 1.02 17 0 17 C0 11.39 0 5.78 0 0 Z " fill="#9DCC5E" transform="translate(95,127)"/>
<path d="M0 0 C0.66 0 1.32 0 2 0 C2 2.97 2 5.94 2 9 C2.66 9 3.32 9 4 9 C3.67 13.95 3.34 18.9 3 24 C2.01 24 1.02 24 0 24 C0 16.08 0 8.16 0 0 Z " fill="#95C751" transform="translate(57,120)"/>
<path d="M0 0 C2.5 2.25 2.5 2.25 4 5 C4 6.32 4 7.64 4 9 C-0.29 9 -4.58 9 -9 9 C-9 8.67 -9 8.34 -9 8 C-5.7 8 -2.4 8 1 8 C0.67 6.35 0.34 4.7 0 3 C-5.32170494 2.70437633 -5.32170494 2.70437633 -10 5 C-10.66 4.34 -11.32 3.68 -12 3 C-8.49094661 -0.50905339 -4.72952734 -1.04669867 0 0 Z " fill="#96C853" transform="translate(119,127)"/>
<path d="M0 0 C2.33944736 0.28730055 4.6739143 0.61936779 7 1 C7.33 2.32 7.66 3.64 8 5 C4.37 5 0.74 5 -3 5 C-1 1 -1 1 0 0 Z " fill="#F8FBF3" transform="translate(81,129)"/>
<path d="M0 0 C2.33944736 0.28730055 4.6739143 0.61936779 7 1 C7.33 2.32 7.66 3.64 8 5 C4.37 5 0.74 5 -3 5 C-1 1 -1 1 0 0 Z " fill="#FAFCF7" transform="translate(112,129)"/>
<path d="M0 0 C0.66 0 1.32 0 2 0 C2 0.99 2 1.98 2 3 C2.75925781 2.96519531 3.51851563 2.93039063 4.30078125 2.89453125 C5.79158203 2.85392578 5.79158203 2.85392578 7.3125 2.8125 C8.79169922 2.76029297 8.79169922 2.76029297 10.30078125 2.70703125 C13 3 13 3 14.85546875 4.51171875 C15.23316406 5.00285156 15.61085938 5.49398437 16 6 C13.52076199 6.02685095 11.0418116 6.04676547 8.5625 6.0625 C7.85544922 6.07087891 7.14839844 6.07925781 6.41992188 6.08789062 C4.61306441 6.09653588 2.80612397 6.05220011 1 6 C0 5 0 5 -0.0625 2.4375 C-0.041875 1.633125 -0.02125 0.82875 0 0 Z " fill="#A3CF68" transform="translate(107,131)"/>
<path d="M0 0 C7.19285339 -0.48765108 7.19285339 -0.48765108 11 1.8125 C13 4 13 4 13 7 C12.01 7 11.02 7 10 7 C9.34 6.01 8.68 5.02 8 4 C4.43230448 3.26393501 4.43230448 3.26393501 1 3 C0.67 2.01 0.34 1.02 0 0 Z " fill="#A4CF69" transform="translate(40,121)"/>
<path d="M0 0 C0.2475 0.556875 0.495 1.11375 0.75 1.6875 C1.98256472 4.16076749 1.98256472 4.16076749 4.1875 6.5625 C4.785625 7.366875 5.38375 8.17125 6 9 C5.67 9.99 5.34 10.98 5 12 C0.02368421 7.18421053 0.02368421 7.18421053 -0.0625 2.875 C-0.041875 1.92625 -0.02125 0.9775 0 0 Z " fill="#9ACA5A" transform="translate(106,132)"/>
<path d="M0 0 C0.66 0.33 1.32 0.66 2 1 C-2.29 3.31 -6.58 5.62 -11 8 C-11.66 7.34 -12.32 6.68 -13 6 C-10.87959258 4.96966118 -8.75352092 3.95097146 -6.625 2.9375 C-5.44164062 2.36902344 -4.25828125 1.80054688 -3.0390625 1.21484375 C-2.03617188 0.81394531 -1.03328125 0.41304687 0 0 Z " fill="#D0E3BA" transform="translate(228,128)"/>
<path d="M0 0 C0.99 0 1.98 0 3 0 C3.33 0.99 3.66 1.98 4 3 C4.66 3.33 5.32 3.66 6 4 C6 4.99 6 5.98 6 7 C3.53199953 5.84826645 1.95216435 4.95216435 0 3 C0 2.01 0 1.02 0 0 Z " fill="#99CA58" transform="translate(35,137)"/>
<path d="M0 0 C2.8125 -0.25 2.8125 -0.25 6 0 C6.99 1.32 7.98 2.64 9 4 C5.7 3.34 2.4 2.68 -1 2 C-0.67 1.34 -0.34 0.68 0 0 Z " fill="#91C54A" transform="translate(82,127)"/>
<path d="M0 0 C0.66 0.33 1.32 0.66 2 1 C2 1.66 2 2.32 2 3 C-2.29 3 -6.58 3 -11 3 C-11 2.67 -11 2.34 -11 2 C-10.28972656 1.93941406 -9.57945313 1.87882813 -8.84765625 1.81640625 C-7.46900391 1.69072266 -7.46900391 1.69072266 -6.0625 1.5625 C-5.14597656 1.48128906 -4.22945313 1.40007812 -3.28515625 1.31640625 C-1.03840268 1.23955024 -1.03840268 1.23955024 0 0 Z " fill="#8CC342" transform="translate(121,133)"/>
</svg>
